<?xml version="1.0" encoding="UTF-8" standalone="no"?><svg xmlns="http://www.w3.org/2000/svg" xmlns:xlink="http://www.w3.org/1999/xlink" contentScriptType="application/ecmascript" contentStyleType="text/css" height="539px" preserveAspectRatio="none" style="width:822px;height:539px;" version="1.1" viewBox="0 0 822 539" width="822px" zoomAndPan="magnify"><defs><filter height="300%" id="f15xoo3cvyvall" width="300%" x="-1" y="-1"><feGaussianBlur result="blurOut" stdDeviation="2.0"/><feColorMatrix in="blurOut" result="blurOut2" type="matrix" values="0 0 0 0 0 0 0 0 0 0 0 0 0 0 0 0 0 0 .4 0"/><feOffset dx="4.0" dy="4.0" in="blurOut2" result="blurOut3"/><feBlend in="SourceGraphic" in2="blurOut3" mode="normal"/></filter></defs><g><text fill="#000000" font-family="sans-serif" font-size="18" lengthAdjust="spacingAndGlyphs" textLength="389" x="210" y="16.708">Activity Diagram - User initalizing the node.</text><!--MD5=[3320c4e17d84b5275ff7273532b2725a]
cluster computer--><polygon fill="#FFFFFF" filter="url(#f15xoo3cvyvall)" points="84,57.4231,166,57.4231,173,79.72,805,79.72,805,394.4231,84,394.4231,84,57.4231" style="stroke:#000000;stroke-width:1.5;"/><line style="stroke:#000000;stroke-width:1.5;" x1="84" x2="173" y1="79.72" y2="79.72"/><text fill="#000000" font-family="sans-serif" font-size="14" font-weight="bold" lengthAdjust="spacingAndGlyphs" textLength="76" x="88" y="72.4182">computer</text><ellipse cx="179.7225" cy="233.5406" fill="#FEFECE" filter="url(#f15xoo3cvyvall)" rx="79.7225" ry="35.6175" style="stroke:#A80036;stroke-width:1.5;"/><text fill="#000000" font-family="sans-serif" font-size="14" lengthAdjust="spacingAndGlyphs" textLength="115" x="122.2225" y="224.7429">Blockchain node</text><text fill="#000000" font-family="sans-serif" font-size="14" lengthAdjust="spacingAndGlyphs" textLength="57" x="151.2225" y="241.0398">[We use</text><text fill="#000000" font-family="sans-serif" font-size="14" lengthAdjust="spacingAndGlyphs" textLength="84" x="137.7225" y="257.3366">ganache-cli]</text><ellipse cx="179.5472" cy="127.223" fill="#FEFECE" filter="url(#f15xoo3cvyvall)" rx="74.5472" ry="34.7999" style="stroke:#A80036;stroke-width:1.5;"/><text fill="#000000" font-family="sans-serif" font-size="14" lengthAdjust="spacingAndGlyphs" textLength="110" x="124.5472" y="119.6813">Peer ID provider</text><text fill="#000000" font-family="sans-serif" font-size="14" lengthAdjust="spacingAndGlyphs" textLength="57" x="151.0472" y="135.9781">[We use</text><text fill="#000000" font-family="sans-serif" font-size="14" lengthAdjust="spacingAndGlyphs" textLength="63" x="148.0472" y="152.275">Local file]</text><ellipse cx="179.7281" cy="341.6602" fill="#FEFECE" filter="url(#f15xoo3cvyvall)" rx="73.7281" ry="37.237" style="stroke:#A80036;stroke-width:1.5;"/><text fill="#000000" font-family="sans-serif" font-size="14" lengthAdjust="spacingAndGlyphs" textLength="101" x="129.2281" y="330.4862">Wallet provider</text><text fill="#000000" font-family="sans-serif" font-size="14" lengthAdjust="spacingAndGlyphs" textLength="57" x="151.2281" y="346.7831">[We use</text><text fill="#000000" font-family="sans-serif" font-size="14" lengthAdjust="spacingAndGlyphs" textLength="97" x="131.2281" y="363.0799">Keystore files]</text><ellipse cx="453.1374" cy="233.3506" fill="#FEFECE" filter="url(#f15xoo3cvyvall)" rx="80.1374" ry="18.4275" style="stroke:#A80036;stroke-width:1.5;"/><text fill="#000000" font-family="sans-serif" font-size="14" lengthAdjust="spacingAndGlyphs" textLength="131" x="387.6374" y="237.999">Node configuration</text><ellipse cx="718.2177" cy="294.5108" fill="#FEFECE" filter="url(#f15xoo3cvyvall)" rx="71.2177" ry="23.5877" style="stroke:#A80036;stroke-width:1.5;"/><text fill="#000000" font-family="sans-serif" font-size="14" lengthAdjust="spacingAndGlyphs" textLength="32" x="702.2177" y="287.2943">Start</text><text fill="#000000" font-family="sans-serif" font-size="14" lengthAdjust="spacingAndGlyphs" textLength="108" x="664.2177" y="303.5912">the perun node</text><!--MD5=[f152b445e5bcee5e5394952cb1476aeb]
entity alice--><ellipse cx="21.5" cy="202.4231" fill="#FEFECE" filter="url(#f15xoo3cvyvall)" rx="8" ry="8" style="stroke:#A80036;stroke-width:1.5;"/><path d="M21.5,210.4231 L21.5,237.4231 M8.5,218.4231 L34.5,218.4231 M21.5,237.4231 L8.5,252.4231 M21.5,237.4231 L34.5,252.4231 " fill="none" filter="url(#f15xoo3cvyvall)" style="stroke:#A80036;stroke-width:1.5;"/><text fill="#000000" font-family="sans-serif" font-size="14" lengthAdjust="spacingAndGlyphs" textLength="31" x="6" y="270.9182">alice</text><!--MD5=[b26f0dd3d2b299230f0d626c8196fb81]
reverse link prep_bc to prov_cnf--><path d="M264.09,233.4231 C298.68,233.4231 338.59,233.4231 372.71,233.4231 " fill="none" id="prep_bc-backto-prov_cnf" style="stroke:#A80036;stroke-width:2.0;stroke-dasharray:7.0,7.0;"/><polygon fill="#A80036" points="259.03,233.4231,268.03,237.4231,264.03,233.4231,268.03,229.4231,259.03,233.4231" style="stroke:#A80036;stroke-width:2.0;"/><text fill="#000000" font-family="sans-serif" font-size="13" lengthAdjust="spacingAndGlyphs" textLength="52" x="290" y="229.49">requires</text><!--MD5=[02374aeed770062597cd4ef9be56d893]
reverse link prov_cont to prov_cnf--><path d="M242.37,151.5731 C294.21,171.8131 366.74,200.1331 411.47,217.5931 " fill="none" id="prov_cont-backto-prov_cnf" style="stroke:#A80036;stroke-width:2.0;stroke-dasharray:7.0,7.0;"/><polygon fill="#A80036" points="237.42,149.6431,244.3541,156.6373,242.0789,151.4581,247.2581,149.1829,237.42,149.6431" style="stroke:#A80036;stroke-width:2.0;"/><text fill="#000000" font-family="sans-serif" font-size="13" lengthAdjust="spacingAndGlyphs" textLength="52" x="290" y="167.49">requires</text><!--MD5=[99cf1719fa70f492cd11c54bd394f1ff]
reverse link prov_ks to prov_cnf--><path d="M242.4,316.7931 C294.44,296.0931 367.3,267.1131 411.98,249.3431 " fill="none" id="prov_ks-backto-prov_cnf" style="stroke:#A80036;stroke-width:2.0;stroke-dasharray:7.0,7.0;"/><polygon fill="#A80036" points="237.75,318.6531,247.5908,319.0506,242.3973,316.8085,244.6394,311.615,237.75,318.6531" style="stroke:#A80036;stroke-width:2.0;"/><text fill="#000000" font-family="sans-serif" font-size="13" lengthAdjust="spacingAndGlyphs" textLength="52" x="290" y="274.49">requires</text><!--MD5=[f84394e7cdd3f7f117f6d4d73d20a9b1]
reverse link prov_cnf to start_perun--><path d="M515.05,247.5831 C558.49,257.6531 616.48,271.1031 659.17,281.0031 " fill="none" id="prov_cnf-backto-start_perun" style="stroke:#A80036;stroke-width:2.0;stroke-dasharray:7.0,7.0;"/><polygon fill="#A80036" points="510.1,246.4331,517.965,252.3612,514.971,247.5616,519.7706,244.5676,510.1,246.4331" style="stroke:#A80036;stroke-width:2.0;"/><text fill="#000000" font-family="sans-serif" font-size="13" lengthAdjust="spacingAndGlyphs" textLength="52" x="564" y="256.49">requires</text><!--MD5=[a65e696f2a4aec7bcce27d0752484d1e]
link alice to prep_bc--><path d="M37.18,233.4231 C50.86,233.4231 72.43,233.4231 94.65,233.4231 " fill="none" id="alice-to-prep_bc" style="stroke:#A80036;stroke-width:2.0;"/><polygon fill="#A80036" points="99.7,233.4231,90.7,229.4231,94.7,233.4231,90.7,237.4231,99.7,233.4231" style="stroke:#A80036;stroke-width:2.0;"/><!--MD5=[7bab052ddb0fadf5d0f1a63af3b551ba]
link alice to prov_cont--><path d="M37.27,216.2931 C47.42,205.1831 61.62,190.8831 76,180.4231 C89.58,170.5431 105.26,161.4531 120.2,153.6831 " fill="none" id="alice-to-prov_cont" style="stroke:#A80036;stroke-width:2.0;"/><polygon fill="#A80036" points="124.81,151.3231,114.975,151.8457,120.3551,153.5934,118.6074,158.9735,124.81,151.3231" style="stroke:#A80036;stroke-width:2.0;"/><!--MD5=[208dfb4ede5ff98a09a45f4018fa6f5e]
link alice to prov_cnf--><path d="M23.62,192.8031 C27.08,155.2031 38.75,101.1931 76,74.4231 C142.05,26.9531 182.45,46.9531 259,74.4231 C335.68,101.9431 403.65,174.5531 434.48,211.3631 " fill="none" id="alice-to-prov_cnf" style="stroke:#A80036;stroke-width:2.0;"/><polygon fill="#A80036" points="437.7,215.2431,435.0147,205.7674,434.5005,211.4008,428.867,210.8866,437.7,215.2431" style="stroke:#A80036;stroke-width:2.0;"/><!--MD5=[348d558fb271034b78e07d4760e57270]
link alice to prov_ks--><path d="M37.32,250.4731 C47.5,261.5531 61.7,275.8531 76,286.4231 C89.69,296.5431 105.47,305.9531 120.49,314.0331 " fill="none" id="alice-to-prov_ks" style="stroke:#A80036;stroke-width:2.0;"/><polygon fill="#A80036" points="125.12,316.5031,119.0455,308.7507,120.7035,314.1591,115.2951,315.8171,125.12,316.5031" style="stroke:#A80036;stroke-width:2.0;"/><!--MD5=[727aa16fa58592a87876a19fadfc7666]
link alice to start_perun--><path d="M23.31,274.0531 C26.51,312.3731 37.95,367.9131 76,395.4231 C266.27,532.9631 571.55,379.6331 678.5,317.8631 " fill="none" id="alice-to-start_perun" style="stroke:#A80036;stroke-width:2.0;"/><polygon fill="#A80036" points="683.13,315.1731,673.3385,316.2347,678.8065,317.6845,677.3567,323.1524,683.13,315.1731" style="stroke:#A80036;stroke-width:2.0;"/><!--MD5=[840d835c2e55ef2e7f32055ccf1558c3]
@startuml act_node_init
Title Activity Diagram - User initalizing the node.

skinparam sequence {
    messageAlign center
    ArrowThickness 2
    BoxBorderColor Sienna
    BoxBackgroundColor SeaShell
    GroupBodyBackgroundColor transparent
    NoteTextAlignment center
    DefaultTextAlignment center
}

actor alice

left to right direction

package computer {
    (Blockchain node\n[We use\nganache-cli]) as prep_bc
    (Peer ID provider\n[We use\nLocal file]) as prov_cont
    (Wallet provider\n[We use\nKeystore files]) as prov_ks
    (Node configuration) as prov_cnf
    (Start\nthe perun node) as start_perun
}

prov_cnf .up.> prep_bc: requires
prov_cnf .up.> prov_cont: requires
prov_cnf .up.> prov_ks: requires
start_perun .up.> prov_cnf: requires

alice -right-> prep_bc
alice -down-> prov_cont
alice -down-> prov_cnf
alice -down-> prov_ks
alice -right-> start_perun

@enduml

PlantUML version 1.2020.21(Mon Nov 30 22:10:11 IST 2020)
(GPL source distribution)
Java Runtime: OpenJDK Runtime Environment
JVM: OpenJDK 64-Bit Server VM
Default Encoding: UTF-8
Language: en
Country: IN
--></g></svg>