<?xml version="1.0" encoding="UTF-8" standalone="no"?><svg xmlns="http://www.w3.org/2000/svg" xmlns:xlink="http://www.w3.org/1999/xlink" contentScriptType="application/ecmascript" contentStyleType="text/css" height="574px" preserveAspectRatio="none" style="width:989px;height:574px;" version="1.1" viewBox="0 0 989 574" width="989px" zoomAndPan="magnify"><defs><filter height="300%" id="fc9kogwastaml" width="300%" x="-1" y="-1"><feGaussianBlur result="blurOut" stdDeviation="2.0"/><feColorMatrix in="blurOut" result="blurOut2" type="matrix" values="0 0 0 0 0 0 0 0 0 0 0 0 0 0 0 0 0 0 .4 0"/><feOffset dx="4.0" dy="4.0" in="blurOut2" result="blurOut3"/><feBlend in="SourceGraphic" in2="blurOut3" mode="normal"/></filter></defs><g><text fill="#000000" font-family="sans-serif" font-size="22" font-weight="bold" lengthAdjust="spacingAndGlyphs" textLength="265" x="355.5" y="20.4209">Deployment Diagram</text><!--MD5=[19e6f2a364bc359118f1b921aca8bdf0]
cluster alice's computer--><polygon fill="#FFFFFF" filter="url(#fc9kogwastaml)" points="227,41.6094,237,31.6094,433,31.6094,433,442.6094,423,452.6094,227,452.6094,227,41.6094" style="stroke:#000000;stroke-width:1.5;"/><line style="stroke:#000000;stroke-width:1.5;" x1="423" x2="433" y1="41.6094" y2="31.6094"/><line style="stroke:#000000;stroke-width:1.5;" x1="227" x2="423" y1="41.6094" y2="41.6094"/><line style="stroke:#000000;stroke-width:1.5;" x1="423" x2="423" y1="41.6094" y2="452.6094"/><text fill="#000000" font-family="sans-serif" font-size="14" font-style="italic" lengthAdjust="spacingAndGlyphs" textLength="64" x="294" y="57.6045">«device»</text><text fill="#000000" font-family="sans-serif" font-size="14" font-weight="bold" lengthAdjust="spacingAndGlyphs" textLength="130" x="261" y="73.9014">alice's computer</text><!--MD5=[8a9681a9a7d01efb96fb3c6d1c27ad3f]
cluster bob's computer--><polygon fill="#FFFFFF" filter="url(#fc9kogwastaml)" points="564,41.6094,574,31.6094,764,31.6094,764,329.6094,754,339.6094,564,339.6094,564,41.6094" style="stroke:#000000;stroke-width:1.5;"/><line style="stroke:#000000;stroke-width:1.5;" x1="754" x2="764" y1="41.6094" y2="31.6094"/><line style="stroke:#000000;stroke-width:1.5;" x1="564" x2="754" y1="41.6094" y2="41.6094"/><line style="stroke:#000000;stroke-width:1.5;" x1="754" x2="754" y1="41.6094" y2="339.6094"/><text fill="#000000" font-family="sans-serif" font-size="14" font-style="italic" lengthAdjust="spacingAndGlyphs" textLength="64" x="628" y="57.6045">«device»</text><text fill="#000000" font-family="sans-serif" font-size="14" font-weight="bold" lengthAdjust="spacingAndGlyphs" textLength="124" x="598" y="73.9014">bob's computer</text><!--MD5=[560ee02c553af32a53549c9adfcbc007]
entity alice_perun_node--><rect fill="#FEFECE" filter="url(#fc9kogwastaml)" height="41.625" style="stroke:#000000;stroke-width:1.5;" width="132" x="263.5" y="281.6094"/><polygon fill="#FEFECE" points="378.5,286.6094,378.5,300.6094,390.5,300.6094,390.5,292.6094,384.5,286.6094,378.5,286.6094" style="stroke:#000000;stroke-width:1.5;"/><line style="stroke:#000000;stroke-width:1.5;" x1="384.5" x2="384.5" y1="286.6094" y2="292.6094"/><line style="stroke:#000000;stroke-width:1.5;" x1="390.5" x2="384.5" y1="292.6094" y2="292.6094"/><text fill="#000000" font-family="sans-serif" font-size="16" font-weight="bold" lengthAdjust="spacingAndGlyphs" textLength="102" x="273.5" y="309.4609">perun node</text><!--MD5=[e875f9f385811dc5231ddddad40feb0c]
entity blockchain_node_1--><polygon fill="#FEFECE" filter="url(#fc9kogwastaml)" points="246,400.6094,256,390.6094,413,390.6094,413,426.9063,403,436.9063,246,436.9063,246,400.6094" style="stroke:#000000;stroke-width:1.5;"/><line style="stroke:#000000;stroke-width:1.5;" x1="403" x2="413" y1="400.6094" y2="390.6094"/><line style="stroke:#000000;stroke-width:1.5;" x1="246" x2="403" y1="400.6094" y2="400.6094"/><line style="stroke:#000000;stroke-width:1.5;" x1="403" x2="403" y1="400.6094" y2="436.9063"/><text fill="#000000" font-family="sans-serif" font-size="14" lengthAdjust="spacingAndGlyphs" textLength="127" x="261" y="423.6045">blockchain node 1</text><!--MD5=[a63cd4b497f5ca619f849b9fcb527aec]
entity ID_provider_1--><polygon fill="#FEFECE" filter="url(#fc9kogwastaml)" points="266,178.6094,276,168.6094,393,168.6094,393,204.9063,383,214.9063,266,214.9063,266,178.6094" style="stroke:#000000;stroke-width:1.5;"/><line style="stroke:#000000;stroke-width:1.5;" x1="383" x2="393" y1="178.6094" y2="168.6094"/><line style="stroke:#000000;stroke-width:1.5;" x1="266" x2="383" y1="178.6094" y2="178.6094"/><line style="stroke:#000000;stroke-width:1.5;" x1="383" x2="383" y1="178.6094" y2="214.9063"/><text fill="#000000" font-family="sans-serif" font-size="14" lengthAdjust="spacingAndGlyphs" textLength="87" x="281" y="201.6045">ID provider 1</text><!--MD5=[8881bb14b310adb59c8691ad47a85162]
entity wallet_provider_1--><polygon fill="#FEFECE" filter="url(#fc9kogwastaml)" points="253.5,97.6094,263.5,87.6094,405.5,87.6094,405.5,123.9063,395.5,133.9063,253.5,133.9063,253.5,97.6094" style="stroke:#000000;stroke-width:1.5;"/><line style="stroke:#000000;stroke-width:1.5;" x1="395.5" x2="405.5" y1="97.6094" y2="87.6094"/><line style="stroke:#000000;stroke-width:1.5;" x1="253.5" x2="395.5" y1="97.6094" y2="97.6094"/><line style="stroke:#000000;stroke-width:1.5;" x1="395.5" x2="395.5" y1="97.6094" y2="133.9063"/><text fill="#000000" font-family="sans-serif" font-size="14" lengthAdjust="spacingAndGlyphs" textLength="112" x="268.5" y="120.6045">wallet provider 1</text><!--MD5=[e8869aff20245152dd0570ea6a1d66fc]
entity bob_perun_node--><rect fill="#FEFECE" filter="url(#fc9kogwastaml)" height="41.625" style="stroke:#000000;stroke-width:1.5;" width="132" x="598" y="281.6094"/><polygon fill="#FEFECE" points="713,286.6094,713,300.6094,725,300.6094,725,292.6094,719,286.6094,713,286.6094" style="stroke:#000000;stroke-width:1.5;"/><line style="stroke:#000000;stroke-width:1.5;" x1="719" x2="719" y1="286.6094" y2="292.6094"/><line style="stroke:#000000;stroke-width:1.5;" x1="725" x2="719" y1="292.6094" y2="292.6094"/><text fill="#000000" font-family="sans-serif" font-size="16" font-weight="bold" lengthAdjust="spacingAndGlyphs" textLength="102" x="608" y="309.4609">perun node</text><!--MD5=[e644af3664fcf76345868ead5c8fa9a0]
entity wallet_provider_2--><polygon fill="#FEFECE" filter="url(#fc9kogwastaml)" points="588,97.6094,598,87.6094,740,87.6094,740,123.9063,730,133.9063,588,133.9063,588,97.6094" style="stroke:#000000;stroke-width:1.5;"/><line style="stroke:#000000;stroke-width:1.5;" x1="730" x2="740" y1="97.6094" y2="87.6094"/><line style="stroke:#000000;stroke-width:1.5;" x1="588" x2="730" y1="97.6094" y2="97.6094"/><line style="stroke:#000000;stroke-width:1.5;" x1="730" x2="730" y1="97.6094" y2="133.9063"/><text fill="#000000" font-family="sans-serif" font-size="14" lengthAdjust="spacingAndGlyphs" textLength="112" x="603" y="120.6045">wallet provider 2</text><!--MD5=[421d647884c043ce7f89387ec9cf3faa]
entity ID_provider_2--><polygon fill="#FEFECE" filter="url(#fc9kogwastaml)" points="600.5,178.6094,610.5,168.6094,727.5,168.6094,727.5,204.9063,717.5,214.9063,600.5,214.9063,600.5,178.6094" style="stroke:#000000;stroke-width:1.5;"/><line style="stroke:#000000;stroke-width:1.5;" x1="717.5" x2="727.5" y1="178.6094" y2="168.6094"/><line style="stroke:#000000;stroke-width:1.5;" x1="600.5" x2="717.5" y1="178.6094" y2="178.6094"/><line style="stroke:#000000;stroke-width:1.5;" x1="717.5" x2="717.5" y1="178.6094" y2="214.9063"/><text fill="#000000" font-family="sans-serif" font-size="14" lengthAdjust="spacingAndGlyphs" textLength="87" x="615.5" y="201.6045">ID provider 2</text><!--MD5=[f152b445e5bcee5e5394952cb1476aeb]
entity alice--><ellipse cx="21.5" cy="301.6094" fill="#FEFECE" filter="url(#fc9kogwastaml)" rx="8" ry="8" style="stroke:#A80036;stroke-width:1.5;"/><path d="M21.5,309.6094 L21.5,336.6094 M8.5,317.6094 L34.5,317.6094 M21.5,336.6094 L8.5,351.6094 M21.5,336.6094 L34.5,351.6094 " fill="none" filter="url(#fc9kogwastaml)" style="stroke:#A80036;stroke-width:1.5;"/><text fill="#000000" font-family="sans-serif" font-size="14" lengthAdjust="spacingAndGlyphs" textLength="31" x="6" y="370.1045">alice</text><!--MD5=[8e36e8bcb951c7385246966ef326582c]
entity bob--><ellipse cx="968.5" cy="272.6094" fill="#FEFECE" filter="url(#fc9kogwastaml)" rx="8" ry="8" style="stroke:#A80036;stroke-width:1.5;"/><path d="M968.5,280.6094 L968.5,307.6094 M955.5,288.6094 L981.5,288.6094 M968.5,307.6094 L955.5,322.6094 M968.5,307.6094 L981.5,322.6094 " fill="none" filter="url(#fc9kogwastaml)" style="stroke:#A80036;stroke-width:1.5;"/><text fill="#000000" font-family="sans-serif" font-size="14" lengthAdjust="spacingAndGlyphs" textLength="27" x="955" y="341.1045">bob</text><!--MD5=[eade16dce9e752370fa6e07433544ee1]
entity blockchain_node_2--><polygon fill="#FEFECE" filter="url(#fc9kogwastaml)" points="580.5,400.6094,590.5,390.6094,747.5,390.6094,747.5,426.9063,737.5,436.9063,580.5,436.9063,580.5,400.6094" style="stroke:#000000;stroke-width:1.5;"/><line style="stroke:#000000;stroke-width:1.5;" x1="737.5" x2="747.5" y1="400.6094" y2="390.6094"/><line style="stroke:#000000;stroke-width:1.5;" x1="580.5" x2="737.5" y1="400.6094" y2="400.6094"/><line style="stroke:#000000;stroke-width:1.5;" x1="737.5" x2="737.5" y1="400.6094" y2="436.9063"/><text fill="#000000" font-family="sans-serif" font-size="14" lengthAdjust="spacingAndGlyphs" textLength="127" x="595.5" y="423.6045">blockchain node 2</text><!--MD5=[a9e8d8a769aaefcfb8dabadafe7360df]
entity blockchain_node_x--><polygon fill="#FEFECE" filter="url(#fc9kogwastaml)" points="247,481.6094,257,471.6094,412,471.6094,412,507.9063,402,517.9063,247,517.9063,247,481.6094" style="stroke:#000000;stroke-width:1.5;"/><line style="stroke:#000000;stroke-width:1.5;" x1="402" x2="412" y1="481.6094" y2="471.6094"/><line style="stroke:#000000;stroke-width:1.5;" x1="247" x2="402" y1="481.6094" y2="481.6094"/><line style="stroke:#000000;stroke-width:1.5;" x1="402" x2="402" y1="481.6094" y2="517.9063"/><text fill="#000000" font-family="sans-serif" font-size="14" lengthAdjust="spacingAndGlyphs" textLength="125" x="262" y="504.6045">blockchain node x</text><!--MD5=[a6a2cc59831283e5adb024b172ddf4a3]
entity blockchain_node_y--><polygon fill="#FEFECE" filter="url(#fc9kogwastaml)" points="581.5,481.6094,591.5,471.6094,746.5,471.6094,746.5,507.9063,736.5,517.9063,581.5,517.9063,581.5,481.6094" style="stroke:#000000;stroke-width:1.5;"/><line style="stroke:#000000;stroke-width:1.5;" x1="736.5" x2="746.5" y1="481.6094" y2="471.6094"/><line style="stroke:#000000;stroke-width:1.5;" x1="581.5" x2="736.5" y1="481.6094" y2="481.6094"/><line style="stroke:#000000;stroke-width:1.5;" x1="736.5" x2="736.5" y1="481.6094" y2="517.9063"/><text fill="#000000" font-family="sans-serif" font-size="14" lengthAdjust="spacingAndGlyphs" textLength="125" x="596.5" y="504.6045">blockchain node y</text><!--MD5=[7e220c10d93ab65c93e741ee055de556]
link alice to alice_perun_node--><path d="M42.43,330.2994 C50.11,329.4294 58.96,328.4494 67,327.6094 C131.82,320.8694 205.75,313.8694 258.42,308.9894 " fill="none" id="alice-alice_perun_node" style="stroke:#A80036;stroke-width:1.0;"/><polygon fill="#A80036" points="263.45,308.5294,254.1134,305.3944,258.4722,309.0001,254.8665,313.3588,263.45,308.5294" style="stroke:#A80036;stroke-width:1.0;"/><polygon fill="#A80036" points="37.33,330.8794,46.7204,333.8491,42.2987,330.3209,45.8269,325.8992,37.33,330.8794" style="stroke:#A80036;stroke-width:1.0;"/><text fill="#000000" font-family="sans-serif" font-size="13" lengthAdjust="spacingAndGlyphs" textLength="67" x="105.5" y="264.6763">«user api»</text><text fill="#000000" font-family="sans-serif" font-size="13" lengthAdjust="spacingAndGlyphs" textLength="126" x="76" y="279.8091">(untrusted channel)</text><text fill="#000000" font-family="sans-serif" font-size="13" lengthAdjust="spacingAndGlyphs" textLength="123" x="77.5" y="294.9419">Remote API calls or</text><text fill="#000000" font-family="sans-serif" font-size="13" lengthAdjust="spacingAndGlyphs" textLength="142" x="68" y="310.0747">Function, Method calls</text><!--MD5=[7e220c10d93ab65c93e741ee055de556]
link alice to alice_perun_node--><path d="M37.03,356.4294 C44.59,366.4894 54.81,377.1394 67,382.6094 C125.39,408.8094 153.32,410.3294 211,382.6094 C216.13,380.1394 214.77,376.4194 219,372.6094 C238.74,354.8594 263.45,338.6394 284.41,326.2994 " fill="none" id="alice-to-alice_perun_node" style="stroke:#A80036;stroke-width:1.0;"/><polygon fill="#A80036" points="288.82,323.7194,279.0285,324.781,284.4965,326.2307,283.0467,331.6987,288.82,323.7194" style="stroke:#A80036;stroke-width:1.0;"/><text fill="#000000" font-family="sans-serif" font-size="13" lengthAdjust="spacingAndGlyphs" textLength="83" x="97.5" y="348.6763">«config files»</text><text fill="#000000" font-family="sans-serif" font-size="13" lengthAdjust="spacingAndGlyphs" textLength="110" x="84" y="363.8091">(trusted channel)</text><text fill="#000000" font-family="sans-serif" font-size="13" lengthAdjust="spacingAndGlyphs" textLength="117" x="80.5" y="378.9419">file system access</text><!--MD5=[84404f8df726d8f9280495366d38cd30]
link alice_perun_node to ID_provider_1--><path d="M329.5,281.4694 C329.5,264.1094 329.5,239.3494 329.5,220.2094 " fill="none" id="alice_perun_node-to-ID_provider_1" style="stroke:#A80036;stroke-width:1.0;"/><polygon fill="#A80036" points="329.5,214.9694,325.5,223.9694,329.5,219.9694,333.5,223.9694,329.5,214.9694" style="stroke:#A80036;stroke-width:1.0;"/><text fill="#000000" font-family="sans-serif" font-size="13" lengthAdjust="spacingAndGlyphs" textLength="84" x="268.5" y="245.1763">«peer ID list»</text><text fill="#000000" font-family="sans-serif" font-size="13" lengthAdjust="spacingAndGlyphs" textLength="117" x="252" y="260.3091">file system access</text><!--MD5=[00485678ef5ba8ed1559a4e6d5bb0624]
link alice_perun_node to wallet_provider_1--><path d="M263.28,283.3494 C184.94,257.2894 71.12,207.0994 121.5,147.1094 C151.7,111.1494 203.73,102.0394 248.2,101.9094 " fill="none" id="alice_perun_node-to-wallet_provider_1" style="stroke:#A80036;stroke-width:1.0;"/><polygon fill="#A80036" points="253.31,101.9294,244.333,97.878,248.3101,101.9008,244.2873,105.8779,253.31,101.9294" style="stroke:#A80036;stroke-width:1.0;"/><text fill="#000000" font-family="sans-serif" font-size="13" lengthAdjust="spacingAndGlyphs" textLength="52" x="113" y="160.1763">«wallet»</text><text fill="#000000" font-family="sans-serif" font-size="13" lengthAdjust="spacingAndGlyphs" textLength="63" x="107.5" y="175.3091">ethereum</text><text fill="#000000" font-family="sans-serif" font-size="13" lengthAdjust="spacingAndGlyphs" textLength="95" x="91.5" y="190.4419">keystore wallet</text><!--MD5=[099bf16e623dd2e14fd900ddd3c24f8b]
link alice_perun_node to bob_perun_node--><path d="M401,302.6094 C457.5,302.6094 536.39,302.6094 592.81,302.6094 " fill="none" id="alice_perun_node-bob_perun_node" style="stroke:#A80036;stroke-width:1.0;"/><polygon fill="#A80036" points="597.85,302.6094,588.85,298.6094,592.85,302.6094,588.85,306.6094,597.85,302.6094" style="stroke:#A80036;stroke-width:1.0;"/><polygon fill="#A80036" points="395.79,302.6094,404.79,306.6094,400.79,302.6094,404.79,298.6094,395.79,302.6094" style="stroke:#A80036;stroke-width:1.0;"/><text fill="#000000" font-family="sans-serif" font-size="13" lengthAdjust="spacingAndGlyphs" textLength="97" x="450" y="283.6763">«wire protocol»</text><text fill="#000000" font-family="sans-serif" font-size="13" lengthAdjust="spacingAndGlyphs" textLength="20" x="488.5" y="298.8091">tcp</text><!--MD5=[30aabf77088569a03e862692fe4dce96]
link bob_perun_node to bob--><path d="M735.55,298.7594 C787.66,296.5894 860.3,294.9594 924,298.6094 C932.14,299.0794 941.09,300.0294 948.75,300.9794 " fill="none" id="bob_perun_node-bob" style="stroke:#A80036;stroke-width:1.0;"/><polygon fill="#A80036" points="953.82,301.6294,945.3947,296.529,948.8597,301.0004,944.3883,304.4655,953.82,301.6294" style="stroke:#A80036;stroke-width:1.0;"/><polygon fill="#A80036" points="730.25,298.9794,739.413,302.5903,735.2454,298.7653,739.0705,294.5977,730.25,298.9794" style="stroke:#A80036;stroke-width:1.0;"/><text fill="#000000" font-family="sans-serif" font-size="13" lengthAdjust="spacingAndGlyphs" textLength="67" x="818.5" y="247.6763">«user api»</text><text fill="#000000" font-family="sans-serif" font-size="13" lengthAdjust="spacingAndGlyphs" textLength="126" x="789" y="262.8091">(untrusted channel)</text><text fill="#000000" font-family="sans-serif" font-size="13" lengthAdjust="spacingAndGlyphs" textLength="123" x="790.5" y="277.9419">Remote API calls or</text><text fill="#000000" font-family="sans-serif" font-size="13" lengthAdjust="spacingAndGlyphs" textLength="142" x="781" y="293.0747">Function, Method calls</text><!--MD5=[0c63b5ecf73103cc91353262115677c6]
reverse link bob_perun_node to bob--><path d="M706.19,325.9094 C727.5,336.6394 754.37,348.1794 780,353.6094 C842.61,366.8694 865.76,380.1394 924,353.6094 C936.36,347.9794 946.56,336.9194 953.98,326.6294 " fill="none" id="bob_perun_node-backto-bob" style="stroke:#A80036;stroke-width:1.0;"/><polygon fill="#A80036" points="701.73,323.6294,707.9226,331.2878,706.1819,325.9054,711.5643,324.1648,701.73,323.6294" style="stroke:#A80036;stroke-width:1.0;"/><text fill="#000000" font-family="sans-serif" font-size="13" lengthAdjust="spacingAndGlyphs" textLength="83" x="810.5" y="319.6763">«config files»</text><text fill="#000000" font-family="sans-serif" font-size="13" lengthAdjust="spacingAndGlyphs" textLength="110" x="797" y="334.8091">(trusted channel)</text><text fill="#000000" font-family="sans-serif" font-size="13" lengthAdjust="spacingAndGlyphs" textLength="117" x="793.5" y="349.9419">file system access</text><!--MD5=[03bd0305716b62cb96e5a29c3d692fb4]
link bob_perun_node to wallet_provider_2--><path d="M597.87,286.6394 C529.97,266.9494 439.19,229.4194 477,176.1094 C501,142.2794 543.88,125.7794 582.53,117.7994 " fill="none" id="bob_perun_node-to-wallet_provider_2" style="stroke:#A80036;stroke-width:1.0;"/><polygon fill="#A80036" points="587.71,116.7794,578.104,114.6059,582.8055,117.7517,579.6597,122.4532,587.71,116.7794" style="stroke:#A80036;stroke-width:1.0;"/><text fill="#000000" font-family="sans-serif" font-size="13" lengthAdjust="spacingAndGlyphs" textLength="52" x="472.5" y="189.1763">«wallet»</text><text fill="#000000" font-family="sans-serif" font-size="13" lengthAdjust="spacingAndGlyphs" textLength="63" x="467" y="204.3091">ethereum</text><text fill="#000000" font-family="sans-serif" font-size="13" lengthAdjust="spacingAndGlyphs" textLength="95" x="451" y="219.4419">keystore wallet</text><!--MD5=[7ddc10d3db4ab811aff07217103f5b7e]
link bob_perun_node to ID_provider_2--><path d="M664,281.4694 C664,264.1094 664,239.3494 664,220.2094 " fill="none" id="bob_perun_node-to-ID_provider_2" style="stroke:#A80036;stroke-width:1.0;"/><polygon fill="#A80036" points="664,214.9694,660,223.9694,664,219.9694,668,223.9694,664,214.9694" style="stroke:#A80036;stroke-width:1.0;"/><text fill="#000000" font-family="sans-serif" font-size="13" lengthAdjust="spacingAndGlyphs" textLength="84" x="603" y="245.1763">«peer ID list»</text><text fill="#000000" font-family="sans-serif" font-size="13" lengthAdjust="spacingAndGlyphs" textLength="117" x="586.5" y="260.3091">file system access</text><!--MD5=[9091f8e1c3b09fabb9dc52844ace5d80]
link alice_perun_node to blockchain_node_1--><path d="M329.5,329.0394 C329.5,345.9394 329.5,367.8394 329.5,385.1194 " fill="none" id="alice_perun_node-blockchain_node_1" style="stroke:#A80036;stroke-width:1.0;"/><polygon fill="#A80036" points="329.5,390.3394,333.5,381.3394,329.5,385.3394,325.5,381.3394,329.5,390.3394" style="stroke:#A80036;stroke-width:1.0;"/><polygon fill="#A80036" points="329.5,323.9694,325.5,332.9694,329.5,328.9694,333.5,332.9694,329.5,323.9694" style="stroke:#A80036;stroke-width:1.0;"/><text fill="#000000" font-family="sans-serif" font-size="13" lengthAdjust="spacingAndGlyphs" textLength="143" x="239" y="354.1763">«blockchain node rpc»</text><text fill="#000000" font-family="sans-serif" font-size="13" lengthAdjust="spacingAndGlyphs" textLength="67" x="277" y="369.3091">websocket</text><!--MD5=[37fd6ee68b54bd2b13af46a8bf8fc4e6]
link bob_perun_node to blockchain_node_2--><path d="M664,329.0394 C664,345.9394 664,367.8394 664,385.1194 " fill="none" id="bob_perun_node-blockchain_node_2" style="stroke:#A80036;stroke-width:1.0;"/><polygon fill="#A80036" points="664,390.3394,668,381.3394,664,385.3394,660,381.3394,664,390.3394" style="stroke:#A80036;stroke-width:1.0;"/><polygon fill="#A80036" points="664,323.9694,660,332.9694,664,328.9694,668,332.9694,664,323.9694" style="stroke:#A80036;stroke-width:1.0;"/><text fill="#000000" font-family="sans-serif" font-size="13" lengthAdjust="spacingAndGlyphs" textLength="143" x="573.5" y="354.1763">«blockchain node rpc»</text><text fill="#000000" font-family="sans-serif" font-size="13" lengthAdjust="spacingAndGlyphs" textLength="67" x="611.5" y="369.3091">websocket</text><!--MD5=[88c1a43e524a099b3bdaa27c12c6accb]
link blockchain_node_1 to blockchain_node_2--><path d="M418.24,413.6094 C466.63,413.6094 526.55,413.6094 574.98,413.6094 " fill="none" id="blockchain_node_1-blockchain_node_2" style="stroke:#A80036;stroke-width:1.0;"/><polygon fill="#A80036" points="580.23,413.6094,571.23,409.6094,575.23,413.6094,571.23,417.6094,580.23,413.6094" style="stroke:#A80036;stroke-width:1.0;"/><polygon fill="#A80036" points="413.12,413.6094,422.12,417.6094,418.12,413.6094,422.12,409.6094,413.12,413.6094" style="stroke:#A80036;stroke-width:1.0;"/><!--MD5=[d4ac8ec43b86c43c78ebe7e9c4196542]
link blockchain_node_1 to blockchain_node_x--><path d="M329.5,441.7794 C329.5,449.9694 329.5,458.1494 329.5,466.3394 " fill="none" id="blockchain_node_1-blockchain_node_x" style="stroke:#A80036;stroke-width:1.0;"/><polygon fill="#A80036" points="329.5,471.5094,333.5,462.5094,329.5,466.5094,325.5,462.5094,329.5,471.5094" style="stroke:#A80036;stroke-width:1.0;"/><polygon fill="#A80036" points="329.5,436.6794,325.5,445.6794,329.5,441.6794,333.5,445.6794,329.5,436.6794" style="stroke:#A80036;stroke-width:1.0;"/><!--MD5=[8137df9f43489c6f48954638e4d049f8]
link blockchain_node_2 to blockchain_node_y--><path d="M664,441.7794 C664,449.9694 664,458.1494 664,466.3394 " fill="none" id="blockchain_node_2-blockchain_node_y" style="stroke:#A80036;stroke-width:1.0;"/><polygon fill="#A80036" points="664,471.5094,668,462.5094,664,466.5094,660,462.5094,664,471.5094" style="stroke:#A80036;stroke-width:1.0;"/><polygon fill="#A80036" points="664,436.6794,660,445.6794,664,441.6794,668,445.6794,664,436.6794" style="stroke:#A80036;stroke-width:1.0;"/><!--MD5=[91a0416f07cd5dfca55711a0fe643e1c]
link blockchain_node_x to blockchain_node_y--><path d="M417.44,494.6094 C466.3,494.6094 527.09,494.6094 575.97,494.6094 " fill="none" id="blockchain_node_x-blockchain_node_y" style="stroke:#A80036;stroke-width:1.0;"/><polygon fill="#A80036" points="581.26,494.6094,572.26,490.6094,576.26,494.6094,572.26,498.6094,581.26,494.6094" style="stroke:#A80036;stroke-width:1.0;"/><polygon fill="#A80036" points="412.26,494.6094,421.26,498.6094,417.26,494.6094,421.26,490.6094,412.26,494.6094" style="stroke:#A80036;stroke-width:1.0;"/><!--MD5=[ce55c776b1453b95a1914e89ecdfb782]
link blockchain_node_1 to blockchain_node_y--><path d="M418.28,434.9894 C467.14,446.8994 527.74,461.6594 576.41,473.5194 " fill="none" id="blockchain_node_1-blockchain_node_y" style="stroke:#A80036;stroke-width:1.0;"/><polygon fill="#A80036" points="581.38,474.7294,573.5854,468.7091,576.5226,473.5436,571.6881,476.4809,581.38,474.7294" style="stroke:#A80036;stroke-width:1.0;"/><polygon fill="#A80036" points="413.12,433.7394,420.9146,439.7596,417.9774,434.9251,422.8119,431.9879,413.12,433.7394" style="stroke:#A80036;stroke-width:1.0;"/><!--MD5=[d5f35830fff561921205fb610c9e7eba]
link blockchain_node_x to blockchain_node_2--><path d="M417.41,473.4394 C466.09,461.5794 526.62,446.8294 575.41,434.9494 " fill="none" id="blockchain_node_x-blockchain_node_2" style="stroke:#A80036;stroke-width:1.0;"/><polygon fill="#A80036" points="580.4,433.7294,570.7081,431.9779,575.5426,434.9151,572.6054,439.7496,580.4,433.7294" style="stroke:#A80036;stroke-width:1.0;"/><polygon fill="#A80036" points="412.26,474.6894,421.9519,476.4409,417.1174,473.5036,420.0546,468.6691,412.26,474.6894" style="stroke:#A80036;stroke-width:1.0;"/><rect fill="#FFFFFF" height="26.2969" rx="5" ry="5" style="stroke:#000000;stroke-width:1.0;" width="561" x="207" y="531.9063"/><text fill="#000000" font-family="sans-serif" font-size="14" lengthAdjust="spacingAndGlyphs" textLength="549" x="213" y="549.9014">Note : The blockchain node can be run either locally or in a remote environment</text><!--MD5=[03e82fd790407e884f71dbc6ca527773]
@startuml deployment_diagram

title =Deployment Diagram

left to right direction
skinparam {
 DefaultTextAlignment center
 LegendBackgroundColor white
}

actor alice
actor bob

node "alice's computer" <<device>> {
artifact "==perun node"  as alice_perun_node
node "blockchain node 1" as blockchain_node_1
node "ID provider 1" as ID_provider_1
node "wallet provider 1" as wallet_provider_1
}

node "bob's computer" <<device>> {
artifact "==perun node" as bob_perun_node
node "wallet provider 2" as wallet_provider_2
node "ID provider 2" as ID_provider_2
}



node "blockchain node 2" as blockchain_node_2
node "blockchain node x" as blockchain_node_x
node "blockchain node y" as blockchain_node_y

' since left to right direction has be defined,
' the meaninig of keywords change as below
' Keyword => actual meaning
' up    => left
' down  => right
' left  => up
' right => down

alice<-down->alice_perun_node : <<user api>>\n(untrusted channel)\nRemote API calls or\nFunction, Method calls
alice-down->alice_perun_node : <<config files>>\n(trusted channel)\nfile system access
ID_provider_1<-left-alice_perun_node: <<peer ID list>>\nfile system access
wallet_provider_1<-left-alice_perun_node: <<wallet>>\nethereum\nkeystore wallet

alice_perun_node<-down->bob_perun_node : <<wire protocol>>\ntcp

bob_perun_node<-down->bob : <<user api>>\n(untrusted channel)\nRemote API calls or\nFunction, Method calls
bob_perun_node<-down-bob : <<config files>>\n(trusted channel)\nfile system access
bob_perun_node-right->wallet_provider_2: <<wallet>>\nethereum\nkeystore wallet
bob_perun_node-right->ID_provider_2: <<peer ID list>>\nfile system access

alice_perun_node<-right->blockchain_node_1 : <<blockchain node rpc>>\nwebsocket
bob_perun_node<-right->blockchain_node_2 : <<blockchain node rpc>>\nwebsocket

' p2p connections in blockchain network
blockchain_node_1<-down->blockchain_node_2
blockchain_node_1<-right->blockchain_node_x
blockchain_node_2<-right->blockchain_node_y
blockchain_node_x<-down->blockchain_node_y
blockchain_node_1<-right->blockchain_node_y
blockchain_node_x<-right->blockchain_node_2

legend
Note : The blockchain node can be run either locally or in a remote environment
endlegend

@enduml 

@startuml deployment_diagram

title =Deployment Diagram

left to right direction
skinparam {
 DefaultTextAlignment center
 LegendBackgroundColor white
}

actor alice
actor bob

node "alice's computer" <<device>> {
artifact "==perun node"  as alice_perun_node
node "blockchain node 1" as blockchain_node_1
node "ID provider 1" as ID_provider_1
node "wallet provider 1" as wallet_provider_1
}

node "bob's computer" <<device>> {
artifact "==perun node" as bob_perun_node
node "wallet provider 2" as wallet_provider_2
node "ID provider 2" as ID_provider_2
}



node "blockchain node 2" as blockchain_node_2
node "blockchain node x" as blockchain_node_x
node "blockchain node y" as blockchain_node_y


alice<-down->alice_perun_node : <<user api>>\n(untrusted channel)\nRemote API calls or\nFunction, Method calls
alice-down->alice_perun_node : <<config files>>\n(trusted channel)\nfile system access
ID_provider_1<-left-alice_perun_node: <<peer ID list>>\nfile system access
wallet_provider_1<-left-alice_perun_node: <<wallet>>\nethereum\nkeystore wallet

alice_perun_node<-down->bob_perun_node : <<wire protocol>>\ntcp

bob_perun_node<-down->bob : <<user api>>\n(untrusted channel)\nRemote API calls or\nFunction, Method calls
bob_perun_node<-down-bob : <<config files>>\n(trusted channel)\nfile system access
bob_perun_node-right->wallet_provider_2: <<wallet>>\nethereum\nkeystore wallet
bob_perun_node-right->ID_provider_2: <<peer ID list>>\nfile system access

alice_perun_node<-right->blockchain_node_1 : <<blockchain node rpc>>\nwebsocket
bob_perun_node<-right->blockchain_node_2 : <<blockchain node rpc>>\nwebsocket

blockchain_node_1<-down->blockchain_node_2
blockchain_node_1<-right->blockchain_node_x
blockchain_node_2<-right->blockchain_node_y
blockchain_node_x<-down->blockchain_node_y
blockchain_node_1<-right->blockchain_node_y
blockchain_node_x<-right->blockchain_node_2

legend
Note : The blockchain node can be run either locally or in a remote environment
endlegend

@enduml 

PlantUML version 1.2020.21(Mon Nov 30 22:10:11 IST 2020)
(GPL source distribution)
Java Runtime: OpenJDK Runtime Environment
JVM: OpenJDK 64-Bit Server VM
Default Encoding: UTF-8
Language: en
Country: IN
--></g></svg>